C:\GBW_MyPrograms\KinderuniversiteitApp\Resultaten\Ellis_v10102025\Volwassenen\Volwassenen_v1.mot
version=1
nRows=16
nColumns=29
inDegrees=yes
endheader
                time	         pelvis_tilt	           pelvis_tx	           pelvis_ty	       hip_flexion_l	       hip_flexion_r	        knee_angle_l	        knee_angle_r	       ankle_angle_l	       ankle_angle_r	    lumbar_extension	hamstrings_r/activation	bifemsh_r/activation	glut_max_r/activation	iliopsoas_r/activation	rect_fem_r/activation	  vasti_r/activation	gastroc_r/activation	 soleus_r/activation	tib_ant_r/activation	hamstrings_l/activation	bifemsh_l/activation	glut_max_l/activation	iliopsoas_l/activation	rect_fem_l/activation	  vasti_l/activation	gastroc_l/activation	 soleus_l/activation	tib_ant_l/activation	
          0.00000000	         -5.60791376	          0.00000000	          0.92679202	         25.01093974	         -7.21856821	        -11.16153420	        -31.99963228	          4.59135921	         -8.36549250	        -15.70124895	          0.70453235	          0.85298721	          0.38754503	          0.93984010	          0.27080463	          0.31795191	          0.52549982	          0.11161289	          0.60311319	          0.56400264	          0.29416367	          0.87736549	          0.25812180	          0.73130830	          0.94992628	          0.07679248	          0.72213344	          0.59119058	
          0.01307144	         -5.70767227	          0.01809489	          0.92940009	         24.39737483	         -6.97235221	        -11.91982969	        -32.13364236	          4.80963141	         -6.91664657	        -15.32095503	          0.58513969	          0.70196198	          0.32053701	          0.87717084	          0.22306384	          0.43110884	          0.43187761	          0.09185389	          0.68130417	          0.53489082	          0.24695607	          0.93379755	          0.21258849	          0.60474541	          0.97104523	          0.16803637	          0.84911757	          0.48643412	
          0.02614288	         -5.96647083	          0.03654984	          0.93190176	         23.87627423	         -6.39638586	        -12.60324303	        -32.21561936	          5.10631760	         -4.45105246	        -14.60051219	          0.77205580	          0.83930360	          0.26393954	          0.93093381	          0.18456529	          0.35423675	          0.35487680	          0.07542559	          0.82961390	          0.44220158	          0.20930601	          0.96366216	          0.17557459	          0.52535445	          0.98192346	          0.54883022	          0.91687438	          0.40026993	
          0.03921431	         -6.33324684	          0.05555253	          0.93449160	         23.34164958	         -5.46169328	        -13.13060458	        -32.13190324	          5.41851072	         -0.21372169	        -13.57723233	          0.63993615	          0.90512590	          0.21748508	          0.95735337	          0.16565258	          0.29128313	          0.29157981	          0.06195983	          0.90813130	          0.36447879	          0.18397980	          0.90878068	          0.16244515	          0.73948460	          0.98273696	          0.75415995	          0.95242714	          0.32951281	
          0.05228575	         -6.75633486	          0.07483714	          0.93727753	         22.67958409	         -3.90100419	        -13.35150197	        -32.24341272	          5.65703857	          4.97310497	        -12.32411719	          0.54848838	          0.75918689	          0.17939975	          0.96904168	          0.19932371	          0.23976455	          0.23998646	          0.05473354	          0.94811448	          0.30044389	          0.17035423	          0.74924775	          0.26795866	          0.85117235	          0.97922633	          0.86420231	          0.97071109	          0.27136755	
          0.06535719	         -7.19686107	          0.09399526	          0.94025538	         21.83805550	         -1.59692267	        -13.19027812	        -32.97408808	          5.76531667	          9.74800445	        -11.00100743	          0.71860728	          0.86626214	          0.14796085	          0.97749962	          0.17493425	          0.19712867	          0.19889866	          0.05148846	          0.96413825	          0.24773272	          0.17385015	          0.61696240	          0.60471936	          0.91138134	          0.96963181	          0.92283349	          0.97955479	          0.22364006	
          0.07842863	         -7.68050452	          0.11254694	          0.94309461	         20.94082247	          1.37845341	        -12.76836730	        -34.60636301	          5.78392258	         12.94080879	         -9.70392113	          0.80494814	          0.91921776	          0.12219844	          0.97935887	          0.52953857	          0.16214678	          0.25254709	          0.05231224	          0.79709292	          0.20458294	          0.20517904	          0.50814137	          0.78451595	          0.93905228	          0.94833716	          0.95335512	          0.98347777	          0.18453277	
          0.09150007	         -8.20815638	          0.13004574	          0.94553941	         20.11813092	          4.64348842	        -12.27765163	        -36.64688350	          5.77221511	         14.71376120	         -8.55341134	          0.73456361	          0.77321015	          0.10156015	          0.96467631	          0.72583443	          0.13366771	          0.49913611	          0.48588798	          0.65751341	          0.16966902	          0.27595291	          0.41912728	          0.87867522	          0.94129340	          0.90833679	          0.96838971	          0.98526081	          0.15254524	
          0.10457151	         -8.82282947	          0.14619728	          0.94750195	         19.45392867	          8.03663642	        -11.75545955	        -38.80990358	          5.71064621	         15.26995515	         -7.59047202	          0.64241545	          0.63954432	          0.08656682	          0.79802552	          0.82728508	          0.11138249	          0.43486235	          0.72150420	          0.54186958	          0.14171965	          0.34104686	          0.34663879	          0.92409860	          0.93061039	          0.82330690	          0.97542521	          0.98635428	          0.12645621	
          0.11764294	         -9.55985853	          0.16078083	          0.94889394	         19.02297047	         11.60927567	        -11.24721167	        -40.90444162	          5.60274649	         15.15028645	         -6.85395190	          0.56379252	          0.52813244	          0.09377125	          0.65790559	          0.85649928	          0.09726430	          0.36104032	          0.83302825	          0.44735991	          0.11962820	          0.35882027	          0.28812558	          0.89858853	          0.90603357	          0.85056039	          0.97902511	          0.98742840	          0.10525572	
          0.13071438	        -10.40022362	          0.17375073	          0.94980532	         18.76779452	         15.42673301	        -10.67514749	        -42.99548786	          5.41441299	         14.43821921	         -6.38965933	          0.74484113	          0.43621183	          0.08181254	          0.54242565	          0.88248657	          0.44526675	          0.29900914	          0.69408674	          0.36973020	          0.10055322	          0.37022909	          0.23870183	          0.92460021	          0.91925390	          0.80321868	          0.98157096	          0.98852251	          0.08810440	
          0.14378582	        -11.23962914	          0.18551123	          0.95049717	         18.52320984	         19.12635702	         -9.98346395	        -44.62043650	          5.14353104	         13.56965841	         -6.23583234	          0.77791292	          0.36036162	          0.06978420	          0.44687676	          0.80386570	          0.69731961	          0.24724431	          0.57298642	          0.30601042	          0.08563702	          0.39136009	          0.19596096	          0.87606284	          0.87764845	          0.73143774	          0.98318561	          0.98927826	          0.07450087	
          0.15685726	        -12.05257169	          0.19638227	          0.95096750	         18.26517331	         22.50102176	         -9.21655291	        -45.39759883	          4.83831900	         13.10853986	         -6.35316241	          0.63992313	          0.29771331	          0.05955678	          0.36820278	          0.86497491	          0.83535450	          0.20424520	          0.47205216	          0.25384917	          0.07036113	          0.56753033	          0.57005324	          0.88164834	          0.87924329	          0.60692852	          0.98432091	          0.98954212	          0.06463120	
          0.16992870	        -12.78679984	          0.20674905	          0.95132886	         17.84904245	         25.28235725	         -8.24671168	        -44.64412030	          4.47654178	         13.81686117	         -6.71417653	          0.52635347	          0.24593202	          0.05082024	          0.30323093	          0.86647889	          0.91096988	          0.16854778	          0.38837411	          0.21120687	          0.19675398	          0.67014177	          0.47373470	          0.83320803	          0.76231592	          0.50637527	          0.98482077	          0.98953897	          0.05882634	
          0.18300013	        -13.43568187	          0.21686760	          0.95141747	         17.39652399	         27.01962201	         -7.35558823	        -41.71150348	          4.21047804	         16.20964380	         -7.26374671	          0.43274115	          0.20335017	          0.49274777	          0.24985455	          0.83544446	          0.95100478	          0.13888522	          0.31917937	          0.57534844	          0.16382285	          0.76472333	          0.40567639	          0.72719521	          0.64194692	          0.42171123	          0.98495214	          0.98932291	          0.05818907	
          0.19607157	        -13.97569706	          0.22723237	          0.95143971	         16.88126428	         28.56669776	         -6.59998677	        -39.75903039	          4.03476400	         17.81237031	         -7.91803392	          0.35608228	          0.16831995	          0.72050844	          0.20592128	          0.89557115	          0.97213732	          0.11462024	          0.26251076	          0.53232804	          0.13594425	          0.76498459	          0.33639196	          0.66448919	          0.55710737	          0.35327106	          0.98522322	          0.98899207	          0.05716387	
